# xmcd
#
# Track frame offsets: 
#        150
#        14872
#        26612
#        41170
#        56891
#        71775
#        86559
#        101198
#        117496
#        128878
#        147201
#        160336
#        173221
#        189049
#        205385
#        218525
#        235994
#        252033
#        267665
#
# Disc length: 3772 seconds
#
# Revision: 0
# Processed by: cddbd v1.5.2PL0 Copyright (c) Steve Scherf et al.
# Submitted via: ExactAudioCopy v0.99pb5
#
DISCID=230eba13
DTITLE=Various Artist - Nashville Music Express Vol 2
DYEAR=1900
DGENRE=Country
TTITLE0=Joe Diffie
TTITLE1=Jann Brown
TTITLE2=The Mavericks
TTITLE3=Kostas
TTITLE4=F.Jimenez&R.Foster
TTITLE5=Dolly Parton
TTITLE6=Johnny Rodriques
TTITLE7=Chris Wall
TTITLE8=Major Dundee Band
TTITLE9=Jami O'Hara
TTITLE10=The Red Hots
TTITLE11=Randney Foster
TTITLE12=Clay Walker
TTITLE13=George Strait
TTITLE14=Chely Wright
TTITLE15=M.Chesnutt&W.Jennings
TTITLE16=Greg Holland
TTITLE17=S.Boggus&Chet Atkins
TTITLE18=M.Stuart&Johnny Cash
EXTD=
EXTT0=
EXTT1=
EXTT2=
EXTT3=
EXTT4=
EXTT5=
EXTT6=
EXTT7=
EXTT8=
EXTT9=
EXTT10=
EXTT11=
EXTT12=
EXTT13=
EXTT14=
EXTT15=
EXTT16=
EXTT17=
EXTT18=
PLAYORDER=
